<mxfile host="app.diagrams.net" modified="2021-03-13T18:00:27.096Z" agent="5.0 (Windows)" etag="6BltsCAMFzE7ROmWk1_V" version="14.4.6" type="github">
  <diagram name="Excel logic" id="e7e014a7-5840-1c2e-5031-d8a46d1fe8dd">
    <mxGraphModel dx="4762" dy="2649" grid="1" gridSize="10" guides="1" tooltips="1" connect="1" arrows="1" fold="1" page="1" pageScale="1" pageWidth="1169" pageHeight="826" background="#ffffff" math="0" shadow="0">
      <root>
        <mxCell id="0" />
        <mxCell id="1" parent="0" />
        <mxCell id="2ZdwDaDd-DvCtBjy0k5W-60" value="" style="edgeStyle=orthogonalEdgeStyle;orthogonalLoop=1;jettySize=auto;html=1;curved=1;fontFamily=Comic Sans MS;" edge="1" parent="1" source="2ZdwDaDd-DvCtBjy0k5W-57" target="2ZdwDaDd-DvCtBjy0k5W-59">
          <mxGeometry relative="1" as="geometry" />
        </mxCell>
        <mxCell id="2ZdwDaDd-DvCtBjy0k5W-75" value="" style="edgeStyle=orthogonalEdgeStyle;orthogonalLoop=1;jettySize=auto;html=1;curved=1;fontFamily=Comic Sans MS;" edge="1" parent="1" source="2ZdwDaDd-DvCtBjy0k5W-57" target="2ZdwDaDd-DvCtBjy0k5W-74">
          <mxGeometry relative="1" as="geometry" />
        </mxCell>
        <mxCell id="2ZdwDaDd-DvCtBjy0k5W-57" value="More than 6 columns ?" style="rhombus;whiteSpace=wrap;html=1;fontFamily=Comic Sans MS;" vertex="1" parent="1">
          <mxGeometry x="470" y="-210" width="80" height="80" as="geometry" />
        </mxCell>
        <mxCell id="2ZdwDaDd-DvCtBjy0k5W-134" style="edgeStyle=orthogonalEdgeStyle;orthogonalLoop=1;jettySize=auto;html=1;entryX=1;entryY=0.5;entryDx=0;entryDy=0;exitX=0.5;exitY=0;exitDx=0;exitDy=0;fontFamily=Comic Sans MS;rounded=1;" edge="1" parent="1" source="2ZdwDaDd-DvCtBjy0k5W-59" target="2ZdwDaDd-DvCtBjy0k5W-41">
          <mxGeometry relative="1" as="geometry" />
        </mxCell>
        <mxCell id="2ZdwDaDd-DvCtBjy0k5W-59" value="&lt;div&gt;File Details not enough. Please check Excel files.&lt;/div&gt;" style="whiteSpace=wrap;html=1;fillColor=#f8cecc;strokeColor=#b85450;fontFamily=Comic Sans MS;" vertex="1" parent="1">
          <mxGeometry x="620" y="-200" width="150" height="60" as="geometry" />
        </mxCell>
        <mxCell id="2ZdwDaDd-DvCtBjy0k5W-67" value="" style="edgeStyle=orthogonalEdgeStyle;orthogonalLoop=1;jettySize=auto;html=1;curved=1;fontFamily=Comic Sans MS;" edge="1" parent="1" target="2ZdwDaDd-DvCtBjy0k5W-66">
          <mxGeometry relative="1" as="geometry">
            <mxPoint x="470" y="50" as="sourcePoint" />
          </mxGeometry>
        </mxCell>
        <mxCell id="2ZdwDaDd-DvCtBjy0k5W-140" value="" style="edgeStyle=orthogonalEdgeStyle;curved=1;orthogonalLoop=1;jettySize=auto;html=1;fontFamily=Comic Sans MS;" edge="1" parent="1" source="2ZdwDaDd-DvCtBjy0k5W-63" target="2ZdwDaDd-DvCtBjy0k5W-139">
          <mxGeometry relative="1" as="geometry" />
        </mxCell>
        <mxCell id="2ZdwDaDd-DvCtBjy0k5W-63" value="Latin&lt;br style=&quot;font-size: 11px;&quot;&gt;Columns Header ?" style="rhombus;html=1;fontFamily=Comic Sans MS;fontSize=11;labelBorderColor=none;labelBackgroundColor=none;whiteSpace=wrap;" vertex="1" parent="1">
          <mxGeometry x="470" y="10" width="80" height="80" as="geometry" />
        </mxCell>
        <mxCell id="2ZdwDaDd-DvCtBjy0k5W-166" value="" style="edgeStyle=orthogonalEdgeStyle;rounded=1;orthogonalLoop=1;jettySize=auto;html=1;fontFamily=Comic Sans MS;fontSize=12;" edge="1" parent="1" source="2ZdwDaDd-DvCtBjy0k5W-66" target="2ZdwDaDd-DvCtBjy0k5W-165">
          <mxGeometry relative="1" as="geometry" />
        </mxCell>
        <mxCell id="2ZdwDaDd-DvCtBjy0k5W-66" value="Convert Column headers to Latin" style="whiteSpace=wrap;html=1;fontFamily=Comic Sans MS;" vertex="1" parent="1">
          <mxGeometry x="290" y="20" width="120" height="60" as="geometry" />
        </mxCell>
        <mxCell id="2ZdwDaDd-DvCtBjy0k5W-69" value="no" style="text;html=1;align=center;verticalAlign=middle;resizable=0;points=[];autosize=1;fontFamily=Comic Sans MS;" vertex="1" parent="1">
          <mxGeometry x="430" y="30" width="30" height="20" as="geometry" />
        </mxCell>
        <mxCell id="2ZdwDaDd-DvCtBjy0k5W-168" style="edgeStyle=orthogonalEdgeStyle;rounded=1;orthogonalLoop=1;jettySize=auto;html=1;entryX=0.5;entryY=0;entryDx=0;entryDy=0;fontFamily=Comic Sans MS;fontSize=12;" edge="1" parent="1" source="2ZdwDaDd-DvCtBjy0k5W-70" target="2ZdwDaDd-DvCtBjy0k5W-139">
          <mxGeometry relative="1" as="geometry">
            <Array as="points">
              <mxPoint x="50" y="120" />
              <mxPoint x="510" y="120" />
            </Array>
          </mxGeometry>
        </mxCell>
        <mxCell id="2ZdwDaDd-DvCtBjy0k5W-70" value="Save old column&#39;s header to first row" style="whiteSpace=wrap;html=1;fontFamily=Comic Sans MS;fontSize=13;" vertex="1" parent="1">
          <mxGeometry x="-10" y="20" width="120" height="60" as="geometry" />
        </mxCell>
        <mxCell id="2ZdwDaDd-DvCtBjy0k5W-76" value="" style="edgeStyle=orthogonalEdgeStyle;orthogonalLoop=1;jettySize=auto;html=1;curved=1;fontFamily=Comic Sans MS;" edge="1" parent="1" source="2ZdwDaDd-DvCtBjy0k5W-74" target="2ZdwDaDd-DvCtBjy0k5W-63">
          <mxGeometry relative="1" as="geometry" />
        </mxCell>
        <mxCell id="2ZdwDaDd-DvCtBjy0k5W-78" value="" style="edgeStyle=orthogonalEdgeStyle;orthogonalLoop=1;jettySize=auto;html=1;curved=1;fontFamily=Comic Sans MS;" edge="1" parent="1" source="2ZdwDaDd-DvCtBjy0k5W-74" target="2ZdwDaDd-DvCtBjy0k5W-77">
          <mxGeometry relative="1" as="geometry" />
        </mxCell>
        <mxCell id="2ZdwDaDd-DvCtBjy0k5W-74" value="&lt;div&gt;Exist national_code column ?&lt;/div&gt;" style="rhombus;whiteSpace=wrap;html=1;fontFamily=Comic Sans MS;" vertex="1" parent="1">
          <mxGeometry x="470" y="-100" width="80" height="80" as="geometry" />
        </mxCell>
        <mxCell id="2ZdwDaDd-DvCtBjy0k5W-136" style="edgeStyle=orthogonalEdgeStyle;orthogonalLoop=1;jettySize=auto;html=1;entryX=1;entryY=0.5;entryDx=0;entryDy=0;exitX=1;exitY=0.5;exitDx=0;exitDy=0;fontFamily=Comic Sans MS;rounded=1;" edge="1" parent="1" source="2ZdwDaDd-DvCtBjy0k5W-77" target="2ZdwDaDd-DvCtBjy0k5W-41">
          <mxGeometry relative="1" as="geometry" />
        </mxCell>
        <mxCell id="2ZdwDaDd-DvCtBjy0k5W-77" value="National Code is required. Please set at least one column is National Code." style="whiteSpace=wrap;html=1;fillColor=#f8cecc;strokeColor=#b85450;fontFamily=Comic Sans MS;" vertex="1" parent="1">
          <mxGeometry x="620" y="-90" width="150" height="60" as="geometry" />
        </mxCell>
        <mxCell id="2ZdwDaDd-DvCtBjy0k5W-79" value="no" style="text;html=1;align=center;verticalAlign=middle;resizable=0;points=[];autosize=1;fontFamily=Comic Sans MS;" vertex="1" parent="1">
          <mxGeometry x="570" y="-80" width="30" height="20" as="geometry" />
        </mxCell>
        <mxCell id="2ZdwDaDd-DvCtBjy0k5W-108" value="" style="edgeStyle=orthogonalEdgeStyle;orthogonalLoop=1;jettySize=auto;html=1;curved=1;fontFamily=Comic Sans MS;" edge="1" parent="1" source="2ZdwDaDd-DvCtBjy0k5W-106" target="2ZdwDaDd-DvCtBjy0k5W-107">
          <mxGeometry relative="1" as="geometry" />
        </mxCell>
        <mxCell id="2ZdwDaDd-DvCtBjy0k5W-156" value="" style="edgeStyle=orthogonalEdgeStyle;curved=1;orthogonalLoop=1;jettySize=auto;html=1;fontFamily=Comic Sans MS;" edge="1" parent="1" source="2ZdwDaDd-DvCtBjy0k5W-106" target="2ZdwDaDd-DvCtBjy0k5W-41">
          <mxGeometry relative="1" as="geometry" />
        </mxCell>
        <mxCell id="2ZdwDaDd-DvCtBjy0k5W-106" value="Is locked ?" style="rhombus;whiteSpace=wrap;html=1;fontFamily=Comic Sans MS;fillColor=#fff2cc;strokeColor=#d6b656;" vertex="1" parent="1">
          <mxGeometry x="470" y="-430" width="80" height="80" as="geometry" />
        </mxCell>
        <mxCell id="2ZdwDaDd-DvCtBjy0k5W-111" value="" style="edgeStyle=orthogonalEdgeStyle;orthogonalLoop=1;jettySize=auto;html=1;curved=1;fontFamily=Comic Sans MS;" edge="1" parent="1" source="2ZdwDaDd-DvCtBjy0k5W-107" target="2ZdwDaDd-DvCtBjy0k5W-110">
          <mxGeometry relative="1" as="geometry" />
        </mxCell>
        <mxCell id="2ZdwDaDd-DvCtBjy0k5W-120" value="" style="edgeStyle=orthogonalEdgeStyle;orthogonalLoop=1;jettySize=auto;html=1;curved=1;fontFamily=Comic Sans MS;" edge="1" parent="1" source="2ZdwDaDd-DvCtBjy0k5W-107" target="2ZdwDaDd-DvCtBjy0k5W-119">
          <mxGeometry relative="1" as="geometry" />
        </mxCell>
        <mxCell id="2ZdwDaDd-DvCtBjy0k5W-107" value="Is &lt;br&gt;Supervisor&lt;br&gt; ?" style="rhombus;whiteSpace=wrap;html=1;fontFamily=Comic Sans MS;" vertex="1" parent="1">
          <mxGeometry x="290" y="-430" width="80" height="80" as="geometry" />
        </mxCell>
        <mxCell id="2ZdwDaDd-DvCtBjy0k5W-223" style="edgeStyle=orthogonalEdgeStyle;rounded=1;orthogonalLoop=1;jettySize=auto;html=1;exitX=0.5;exitY=0;exitDx=0;exitDy=0;entryX=0;entryY=0.5;entryDx=0;entryDy=0;fontFamily=Comic Sans MS;fontSize=12;" edge="1" parent="1" source="2ZdwDaDd-DvCtBjy0k5W-110" target="2ZdwDaDd-DvCtBjy0k5W-152">
          <mxGeometry relative="1" as="geometry" />
        </mxCell>
        <mxCell id="2ZdwDaDd-DvCtBjy0k5W-110" value="File Locked and supervisor access needs to unlock." style="whiteSpace=wrap;html=1;fillColor=#f8cecc;strokeColor=#b85450;fontFamily=Comic Sans MS;" vertex="1" parent="1">
          <mxGeometry x="90" y="-420" width="130" height="60" as="geometry" />
        </mxCell>
        <mxCell id="2ZdwDaDd-DvCtBjy0k5W-113" value="no" style="text;html=1;align=center;verticalAlign=middle;resizable=0;points=[];autosize=1;fontFamily=Comic Sans MS;" vertex="1" parent="1">
          <mxGeometry x="240" y="-413" width="30" height="20" as="geometry" />
        </mxCell>
        <mxCell id="2ZdwDaDd-DvCtBjy0k5W-157" style="edgeStyle=orthogonalEdgeStyle;curved=1;orthogonalLoop=1;jettySize=auto;html=1;fontFamily=Comic Sans MS;" edge="1" parent="1" source="2ZdwDaDd-DvCtBjy0k5W-41">
          <mxGeometry relative="1" as="geometry">
            <mxPoint x="510" y="-210" as="targetPoint" />
          </mxGeometry>
        </mxCell>
        <mxCell id="2ZdwDaDd-DvCtBjy0k5W-41" value="Main Excel Upload" style="whiteSpace=wrap;html=1;gradientDirection=south;fontFamily=Comic Sans MS;fillColor=#dae8fc;strokeColor=#6c8ebf;" vertex="1" parent="1">
          <mxGeometry x="450" y="-310" width="120" height="60" as="geometry" />
        </mxCell>
        <mxCell id="2ZdwDaDd-DvCtBjy0k5W-159" style="edgeStyle=orthogonalEdgeStyle;curved=1;orthogonalLoop=1;jettySize=auto;html=1;exitX=1;exitY=0.5;exitDx=0;exitDy=0;entryX=0;entryY=0.5;entryDx=0;entryDy=0;fontFamily=Comic Sans MS;" edge="1" parent="1" source="2ZdwDaDd-DvCtBjy0k5W-119" target="2ZdwDaDd-DvCtBjy0k5W-41">
          <mxGeometry relative="1" as="geometry" />
        </mxCell>
        <mxCell id="2ZdwDaDd-DvCtBjy0k5W-161" style="edgeStyle=orthogonalEdgeStyle;orthogonalLoop=1;jettySize=auto;html=1;exitX=0;exitY=0.5;exitDx=0;exitDy=0;fontFamily=Comic Sans MS;entryX=0;entryY=0.5;entryDx=0;entryDy=0;rounded=1;" edge="1" parent="1" source="2ZdwDaDd-DvCtBjy0k5W-119" target="2ZdwDaDd-DvCtBjy0k5W-152">
          <mxGeometry relative="1" as="geometry">
            <Array as="points">
              <mxPoint x="20" y="-280" />
              <mxPoint x="20" y="-500" />
            </Array>
          </mxGeometry>
        </mxCell>
        <mxCell id="2ZdwDaDd-DvCtBjy0k5W-119" value="Temporary Unlock ?" style="rhombus;whiteSpace=wrap;html=1;fontFamily=Comic Sans MS;" vertex="1" parent="1">
          <mxGeometry x="290" y="-320" width="80" height="80" as="geometry" />
        </mxCell>
        <mxCell id="2ZdwDaDd-DvCtBjy0k5W-121" value="yes" style="text;html=1;align=center;verticalAlign=middle;resizable=0;points=[];autosize=1;fontFamily=Comic Sans MS;" vertex="1" parent="1">
          <mxGeometry x="390" y="-300" width="30" height="20" as="geometry" />
        </mxCell>
        <mxCell id="2ZdwDaDd-DvCtBjy0k5W-124" value="yes" style="text;html=1;align=center;verticalAlign=middle;resizable=0;points=[];autosize=1;fontFamily=Comic Sans MS;" vertex="1" parent="1">
          <mxGeometry x="410" y="-413" width="30" height="20" as="geometry" />
        </mxCell>
        <mxCell id="2ZdwDaDd-DvCtBjy0k5W-135" value="no" style="text;html=1;align=center;verticalAlign=middle;resizable=0;points=[];autosize=1;fontFamily=Comic Sans MS;" vertex="1" parent="1">
          <mxGeometry x="570" y="-190" width="30" height="20" as="geometry" />
        </mxCell>
        <mxCell id="2ZdwDaDd-DvCtBjy0k5W-145" value="" style="edgeStyle=orthogonalEdgeStyle;curved=1;orthogonalLoop=1;jettySize=auto;html=1;fontFamily=Comic Sans MS;" edge="1" parent="1" source="2ZdwDaDd-DvCtBjy0k5W-139" target="2ZdwDaDd-DvCtBjy0k5W-144">
          <mxGeometry relative="1" as="geometry" />
        </mxCell>
        <mxCell id="2ZdwDaDd-DvCtBjy0k5W-187" style="edgeStyle=orthogonalEdgeStyle;rounded=1;orthogonalLoop=1;jettySize=auto;html=1;exitX=0.5;exitY=1;exitDx=0;exitDy=0;entryX=0.5;entryY=0;entryDx=0;entryDy=0;fontFamily=Comic Sans MS;fontSize=13;" edge="1" parent="1" source="2ZdwDaDd-DvCtBjy0k5W-139" target="2ZdwDaDd-DvCtBjy0k5W-186">
          <mxGeometry relative="1" as="geometry" />
        </mxCell>
        <mxCell id="2ZdwDaDd-DvCtBjy0k5W-139" value="Table&lt;br style=&quot;font-size: 12px;&quot;&gt;Exist ?" style="rhombus;whiteSpace=wrap;html=1;fontFamily=Comic Sans MS;fontSize=12;" vertex="1" parent="1">
          <mxGeometry x="470" y="130" width="80" height="80" as="geometry" />
        </mxCell>
        <mxCell id="2ZdwDaDd-DvCtBjy0k5W-141" value="yes" style="text;html=1;align=center;verticalAlign=middle;resizable=0;points=[];autosize=1;fontFamily=Comic Sans MS;" vertex="1" parent="1">
          <mxGeometry x="510" y="100" width="30" height="20" as="geometry" />
        </mxCell>
        <mxCell id="2ZdwDaDd-DvCtBjy0k5W-170" value="" style="edgeStyle=orthogonalEdgeStyle;rounded=1;orthogonalLoop=1;jettySize=auto;html=1;fontFamily=Comic Sans MS;fontSize=12;" edge="1" parent="1" source="2ZdwDaDd-DvCtBjy0k5W-144" target="2ZdwDaDd-DvCtBjy0k5W-169">
          <mxGeometry relative="1" as="geometry" />
        </mxCell>
        <mxCell id="2ZdwDaDd-DvCtBjy0k5W-144" value="Create table with time label" style="whiteSpace=wrap;html=1;fontFamily=Comic Sans MS;fontSize=12;" vertex="1" parent="1">
          <mxGeometry x="290" y="140" width="120" height="60" as="geometry" />
        </mxCell>
        <mxCell id="2ZdwDaDd-DvCtBjy0k5W-149" value="no" style="text;html=1;align=center;verticalAlign=middle;resizable=0;points=[];autosize=1;fontFamily=Comic Sans MS;" vertex="1" parent="1">
          <mxGeometry x="510" y="-350" width="30" height="20" as="geometry" />
        </mxCell>
        <mxCell id="2ZdwDaDd-DvCtBjy0k5W-155" value="" style="edgeStyle=orthogonalEdgeStyle;curved=1;orthogonalLoop=1;jettySize=auto;html=1;fontFamily=Comic Sans MS;" edge="1" parent="1" source="2ZdwDaDd-DvCtBjy0k5W-152" target="2ZdwDaDd-DvCtBjy0k5W-106">
          <mxGeometry relative="1" as="geometry" />
        </mxCell>
        <mxCell id="2ZdwDaDd-DvCtBjy0k5W-152" value="Select Month" style="ellipse;whiteSpace=wrap;html=1;strokeColor=#82b366;fillColor=#d5e8d4;gradientColor=#ffffff;gradientDirection=south;fontFamily=Comic Sans MS;" vertex="1" parent="1">
          <mxGeometry x="450" y="-540" width="120" height="80" as="geometry" />
        </mxCell>
        <mxCell id="2ZdwDaDd-DvCtBjy0k5W-160" value="yes" style="text;html=1;align=center;verticalAlign=middle;resizable=0;points=[];autosize=1;fontFamily=Comic Sans MS;" vertex="1" parent="1">
          <mxGeometry x="335" y="-350" width="30" height="20" as="geometry" />
        </mxCell>
        <mxCell id="2ZdwDaDd-DvCtBjy0k5W-162" value="no" style="text;html=1;align=center;verticalAlign=middle;resizable=0;points=[];autosize=1;fontFamily=Comic Sans MS;" vertex="1" parent="1">
          <mxGeometry x="240" y="-300" width="30" height="20" as="geometry" />
        </mxCell>
        <mxCell id="2ZdwDaDd-DvCtBjy0k5W-164" value="no" style="text;html=1;align=center;verticalAlign=middle;resizable=0;points=[];autosize=1;fontFamily=Comic Sans MS;" vertex="1" parent="1">
          <mxGeometry x="430" y="150" width="30" height="20" as="geometry" />
        </mxCell>
        <mxCell id="2ZdwDaDd-DvCtBjy0k5W-167" value="" style="edgeStyle=orthogonalEdgeStyle;rounded=1;orthogonalLoop=1;jettySize=auto;html=1;fontFamily=Comic Sans MS;fontSize=12;" edge="1" parent="1" source="2ZdwDaDd-DvCtBjy0k5W-165" target="2ZdwDaDd-DvCtBjy0k5W-70">
          <mxGeometry relative="1" as="geometry" />
        </mxCell>
        <mxCell id="2ZdwDaDd-DvCtBjy0k5W-165" value="Check MYSQL requirements for column name (uniqe,...)" style="whiteSpace=wrap;html=1;fontFamily=Comic Sans MS;fontSize=11;fontStyle=0" vertex="1" parent="1">
          <mxGeometry x="140" y="20" width="120" height="60" as="geometry" />
        </mxCell>
        <mxCell id="2ZdwDaDd-DvCtBjy0k5W-174" value="" style="edgeStyle=orthogonalEdgeStyle;rounded=1;orthogonalLoop=1;jettySize=auto;html=1;fontFamily=Comic Sans MS;fontSize=12;" edge="1" parent="1" source="2ZdwDaDd-DvCtBjy0k5W-169" target="2ZdwDaDd-DvCtBjy0k5W-173">
          <mxGeometry relative="1" as="geometry" />
        </mxCell>
        <mxCell id="2ZdwDaDd-DvCtBjy0k5W-169" value="Import all data&#39;s to table and respond to admin by millisecond" style="whiteSpace=wrap;html=1;fontFamily=Comic Sans MS;fontSize=12;fontStyle=0" vertex="1" parent="1">
          <mxGeometry x="140" y="140" width="120" height="60" as="geometry" />
        </mxCell>
        <mxCell id="2ZdwDaDd-DvCtBjy0k5W-176" value="" style="edgeStyle=orthogonalEdgeStyle;rounded=1;orthogonalLoop=1;jettySize=auto;html=1;fontFamily=Comic Sans MS;fontSize=13;" edge="1" parent="1" source="2ZdwDaDd-DvCtBjy0k5W-173" target="2ZdwDaDd-DvCtBjy0k5W-175">
          <mxGeometry relative="1" as="geometry" />
        </mxCell>
        <mxCell id="2ZdwDaDd-DvCtBjy0k5W-214" style="edgeStyle=orthogonalEdgeStyle;rounded=1;orthogonalLoop=1;jettySize=auto;html=1;exitX=0.5;exitY=1;exitDx=0;exitDy=0;entryX=0.5;entryY=0;entryDx=0;entryDy=0;fontFamily=Comic Sans MS;fontSize=12;" edge="1" parent="1" source="2ZdwDaDd-DvCtBjy0k5W-173" target="2ZdwDaDd-DvCtBjy0k5W-186">
          <mxGeometry relative="1" as="geometry">
            <Array as="points">
              <mxPoint x="50" y="240" />
              <mxPoint x="510" y="240" />
            </Array>
          </mxGeometry>
        </mxCell>
        <mxCell id="2ZdwDaDd-DvCtBjy0k5W-173" value="Any Error ?" style="rhombus;whiteSpace=wrap;html=1;fontFamily=Comic Sans MS;fillColor=#fff2cc;strokeColor=#d6b656;" vertex="1" parent="1">
          <mxGeometry x="10" y="130" width="80" height="80" as="geometry" />
        </mxCell>
        <mxCell id="2ZdwDaDd-DvCtBjy0k5W-222" style="edgeStyle=orthogonalEdgeStyle;rounded=1;orthogonalLoop=1;jettySize=auto;html=1;exitX=0.5;exitY=0;exitDx=0;exitDy=0;entryX=0;entryY=0.5;entryDx=0;entryDy=0;fontFamily=Comic Sans MS;fontSize=12;" edge="1" parent="1" source="2ZdwDaDd-DvCtBjy0k5W-175" target="2ZdwDaDd-DvCtBjy0k5W-152">
          <mxGeometry relative="1" as="geometry">
            <Array as="points">
              <mxPoint x="-80" y="-500" />
            </Array>
          </mxGeometry>
        </mxCell>
        <mxCell id="2ZdwDaDd-DvCtBjy0k5W-175" value="Drop table and show error + Log activity and error" style="whiteSpace=wrap;html=1;fontFamily=Comic Sans MS;fillColor=#f8cecc;strokeColor=#b85450;" vertex="1" parent="1">
          <mxGeometry x="-140" y="-310" width="120" height="60" as="geometry" />
        </mxCell>
        <mxCell id="2ZdwDaDd-DvCtBjy0k5W-177" value="yes" style="text;html=1;align=center;verticalAlign=middle;resizable=0;points=[];autosize=1;fontFamily=Comic Sans MS;" vertex="1" parent="1">
          <mxGeometry x="-20" y="150" width="30" height="20" as="geometry" />
        </mxCell>
        <mxCell id="2ZdwDaDd-DvCtBjy0k5W-180" value="yes" style="text;html=1;align=center;verticalAlign=middle;resizable=0;points=[];autosize=1;fontFamily=Comic Sans MS;" vertex="1" parent="1">
          <mxGeometry x="510" y="210" width="30" height="20" as="geometry" />
        </mxCell>
        <mxCell id="2ZdwDaDd-DvCtBjy0k5W-229" style="edgeStyle=orthogonalEdgeStyle;rounded=1;orthogonalLoop=1;jettySize=auto;html=1;entryX=1;entryY=0.5;entryDx=0;entryDy=0;fontFamily=Comic Sans MS;fontSize=12;" edge="1" parent="1" source="2ZdwDaDd-DvCtBjy0k5W-181" target="2ZdwDaDd-DvCtBjy0k5W-227">
          <mxGeometry relative="1" as="geometry">
            <Array as="points">
              <mxPoint x="260" y="530" />
              <mxPoint x="260" y="420" />
            </Array>
          </mxGeometry>
        </mxCell>
        <mxCell id="2ZdwDaDd-DvCtBjy0k5W-181" value="Update exist records by national_id and add new ones." style="whiteSpace=wrap;html=1;fontFamily=Comic Sans MS;fontSize=13;fillColor=#e1d5e7;strokeColor=#9673a6;" vertex="1" parent="1">
          <mxGeometry x="450" y="500" width="120" height="60" as="geometry" />
        </mxCell>
        <mxCell id="2ZdwDaDd-DvCtBjy0k5W-182" value="" style="edgeStyle=orthogonalEdgeStyle;rounded=1;orthogonalLoop=1;jettySize=auto;html=1;fontFamily=Comic Sans MS;fontSize=13;" edge="1" parent="1" source="2ZdwDaDd-DvCtBjy0k5W-122" target="2ZdwDaDd-DvCtBjy0k5W-181">
          <mxGeometry relative="1" as="geometry" />
        </mxCell>
        <mxCell id="2ZdwDaDd-DvCtBjy0k5W-228" style="edgeStyle=orthogonalEdgeStyle;rounded=1;orthogonalLoop=1;jettySize=auto;html=1;exitX=0;exitY=0.5;exitDx=0;exitDy=0;entryX=1;entryY=0.5;entryDx=0;entryDy=0;fontFamily=Comic Sans MS;fontSize=12;" edge="1" parent="1" source="2ZdwDaDd-DvCtBjy0k5W-183" target="2ZdwDaDd-DvCtBjy0k5W-227">
          <mxGeometry relative="1" as="geometry" />
        </mxCell>
        <mxCell id="2ZdwDaDd-DvCtBjy0k5W-183" value="Just insert new records and ignore exists." style="whiteSpace=wrap;html=1;fontFamily=Comic Sans MS;fillColor=#d5e8d4;strokeColor=#82b366;" vertex="1" parent="1">
          <mxGeometry x="290" y="390" width="120" height="60" as="geometry" />
        </mxCell>
        <mxCell id="2ZdwDaDd-DvCtBjy0k5W-184" value="" style="edgeStyle=orthogonalEdgeStyle;rounded=1;orthogonalLoop=1;jettySize=auto;html=1;fontFamily=Comic Sans MS;fontSize=13;" edge="1" parent="1" source="2ZdwDaDd-DvCtBjy0k5W-122" target="2ZdwDaDd-DvCtBjy0k5W-183">
          <mxGeometry relative="1" as="geometry" />
        </mxCell>
        <mxCell id="2ZdwDaDd-DvCtBjy0k5W-185" value="no" style="text;html=1;align=center;verticalAlign=middle;resizable=0;points=[];autosize=1;fontFamily=Comic Sans MS;" vertex="1" parent="1">
          <mxGeometry x="430" y="400" width="30" height="20" as="geometry" />
        </mxCell>
        <mxCell id="2ZdwDaDd-DvCtBjy0k5W-189" value="" style="edgeStyle=orthogonalEdgeStyle;rounded=1;orthogonalLoop=1;jettySize=auto;html=1;fontFamily=Comic Sans MS;fontSize=10;" edge="1" parent="1" source="2ZdwDaDd-DvCtBjy0k5W-186" target="2ZdwDaDd-DvCtBjy0k5W-188">
          <mxGeometry relative="1" as="geometry" />
        </mxCell>
        <mxCell id="2ZdwDaDd-DvCtBjy0k5W-203" style="edgeStyle=orthogonalEdgeStyle;rounded=1;orthogonalLoop=1;jettySize=auto;html=1;exitX=0.5;exitY=1;exitDx=0;exitDy=0;fontFamily=Comic Sans MS;fontSize=10;" edge="1" parent="1" source="2ZdwDaDd-DvCtBjy0k5W-186">
          <mxGeometry relative="1" as="geometry">
            <mxPoint x="509.66666666666697" y="380" as="targetPoint" />
          </mxGeometry>
        </mxCell>
        <mxCell id="2ZdwDaDd-DvCtBjy0k5W-186" value="Is same excel headers and sql table?" style="rhombus;labelBackgroundColor=none;gradientColor=#ffffff;fontFamily=Comic Sans MS;fontSize=10;html=1;whiteSpace=wrap;" vertex="1" parent="1">
          <mxGeometry x="470" y="250" width="80" height="80" as="geometry" />
        </mxCell>
        <mxCell id="2ZdwDaDd-DvCtBjy0k5W-188" value="Show new headers to user for deciding to create or assign to exist one" style="whiteSpace=wrap;html=1;fontFamily=Comic Sans MS;fontSize=10;gradientColor=#ffffff;" vertex="1" parent="1">
          <mxGeometry x="290" y="260" width="120" height="60" as="geometry" />
        </mxCell>
        <mxCell id="2ZdwDaDd-DvCtBjy0k5W-190" value="no" style="text;html=1;align=center;verticalAlign=middle;resizable=0;points=[];autosize=1;fontFamily=Comic Sans MS;" vertex="1" parent="1">
          <mxGeometry x="430" y="270" width="30" height="20" as="geometry" />
        </mxCell>
        <mxCell id="2ZdwDaDd-DvCtBjy0k5W-196" value="" style="edgeStyle=orthogonalEdgeStyle;rounded=1;orthogonalLoop=1;jettySize=auto;html=1;fontFamily=Comic Sans MS;fontSize=10;" edge="1" parent="1" target="2ZdwDaDd-DvCtBjy0k5W-195">
          <mxGeometry relative="1" as="geometry">
            <mxPoint x="290" y="290" as="sourcePoint" />
          </mxGeometry>
        </mxCell>
        <mxCell id="2ZdwDaDd-DvCtBjy0k5W-208" value="" style="edgeStyle=orthogonalEdgeStyle;rounded=1;orthogonalLoop=1;jettySize=auto;html=1;fontFamily=Comic Sans MS;fontSize=10;" edge="1" parent="1" source="2ZdwDaDd-DvCtBjy0k5W-195" target="2ZdwDaDd-DvCtBjy0k5W-207">
          <mxGeometry relative="1" as="geometry" />
        </mxCell>
        <mxCell id="2ZdwDaDd-DvCtBjy0k5W-195" value="&lt;font color=&quot;#00CC00&quot;&gt;&lt;b&gt;Change column name&lt;/b&gt;&lt;/font&gt; to &lt;b&gt;&lt;font color=&quot;#FF0000&quot;&gt;assigned&lt;/font&gt;&lt;/b&gt; name for importing." style="whiteSpace=wrap;html=1;fontFamily=Comic Sans MS;fontSize=10;gradientColor=#ffffff;" vertex="1" parent="1">
          <mxGeometry x="140" y="260" width="120" height="60" as="geometry" />
        </mxCell>
        <mxCell id="2ZdwDaDd-DvCtBjy0k5W-217" style="edgeStyle=orthogonalEdgeStyle;rounded=1;orthogonalLoop=1;jettySize=auto;html=1;exitX=0;exitY=0.5;exitDx=0;exitDy=0;entryX=1;entryY=0.5;entryDx=0;entryDy=0;fontFamily=Comic Sans MS;fontSize=12;" edge="1" parent="1" source="2ZdwDaDd-DvCtBjy0k5W-207" target="2ZdwDaDd-DvCtBjy0k5W-216">
          <mxGeometry relative="1" as="geometry" />
        </mxCell>
        <mxCell id="2ZdwDaDd-DvCtBjy0k5W-207" value="&lt;font color=&quot;#FF0000&quot;&gt;&lt;b&gt;Create&lt;/b&gt;&lt;/font&gt; empty column with new column names" style="whiteSpace=wrap;html=1;fontFamily=Comic Sans MS;fontSize=10;gradientColor=#ffffff;" vertex="1" parent="1">
          <mxGeometry x="-10" y="260" width="120" height="60" as="geometry" />
        </mxCell>
        <mxCell id="2ZdwDaDd-DvCtBjy0k5W-122" value="&lt;font style=&quot;font-size: 11px&quot;&gt;Update &lt;br&gt;Exist Records ?&lt;/font&gt;" style="rhombus;whiteSpace=wrap;html=1;fontFamily=Comic Sans MS;" vertex="1" parent="1">
          <mxGeometry x="470" y="380" width="80" height="80" as="geometry" />
        </mxCell>
        <mxCell id="2ZdwDaDd-DvCtBjy0k5W-132" value="" style="verticalLabelPosition=bottom;verticalAlign=top;html=1;shape=mxgraph.basic.tick;gradientColor=#ffffff;fontFamily=Comic Sans MS;" vertex="1" parent="1">
          <mxGeometry x="517.5" y="460" width="15" height="20" as="geometry" />
        </mxCell>
        <mxCell id="2ZdwDaDd-DvCtBjy0k5W-211" value="Show Reports of imported records " style="shape=document;whiteSpace=wrap;html=1;boundedLbl=1;fontFamily=Comic Sans MS;fontSize=13;fillColor=#fff2cc;strokeColor=#d6b656;" vertex="1" parent="1">
          <mxGeometry x="450" y="600" width="120" height="80" as="geometry" />
        </mxCell>
        <mxCell id="2ZdwDaDd-DvCtBjy0k5W-215" value="no" style="text;html=1;align=center;verticalAlign=middle;resizable=0;points=[];autosize=1;fontFamily=Comic Sans MS;" vertex="1" parent="1">
          <mxGeometry x="50" y="210" width="30" height="20" as="geometry" />
        </mxCell>
        <mxCell id="2ZdwDaDd-DvCtBjy0k5W-218" style="edgeStyle=orthogonalEdgeStyle;rounded=1;orthogonalLoop=1;jettySize=auto;html=1;exitX=0;exitY=0.5;exitDx=0;exitDy=0;entryX=0;entryY=1;entryDx=0;entryDy=0;fontFamily=Comic Sans MS;fontSize=12;" edge="1" parent="1" source="2ZdwDaDd-DvCtBjy0k5W-216" target="2ZdwDaDd-DvCtBjy0k5W-175">
          <mxGeometry relative="1" as="geometry">
            <Array as="points">
              <mxPoint x="-190" y="290" />
              <mxPoint x="-190" y="-250" />
            </Array>
          </mxGeometry>
        </mxCell>
        <mxCell id="2ZdwDaDd-DvCtBjy0k5W-219" style="edgeStyle=orthogonalEdgeStyle;rounded=1;orthogonalLoop=1;jettySize=auto;html=1;entryX=0.5;entryY=0;entryDx=0;entryDy=0;fontFamily=Comic Sans MS;fontSize=12;" edge="1" parent="1" source="2ZdwDaDd-DvCtBjy0k5W-216" target="2ZdwDaDd-DvCtBjy0k5W-122">
          <mxGeometry relative="1" as="geometry">
            <Array as="points">
              <mxPoint x="-80" y="360" />
              <mxPoint x="510" y="360" />
            </Array>
          </mxGeometry>
        </mxCell>
        <mxCell id="2ZdwDaDd-DvCtBjy0k5W-216" value="Any Error ?" style="rhombus;whiteSpace=wrap;html=1;fontFamily=Comic Sans MS;fillColor=#fff2cc;strokeColor=#d6b656;" vertex="1" parent="1">
          <mxGeometry x="-120" y="250" width="80" height="80" as="geometry" />
        </mxCell>
        <mxCell id="2ZdwDaDd-DvCtBjy0k5W-220" value="no" style="text;html=1;align=center;verticalAlign=middle;resizable=0;points=[];autosize=1;fontFamily=Comic Sans MS;" vertex="1" parent="1">
          <mxGeometry x="-80" y="330" width="30" height="20" as="geometry" />
        </mxCell>
        <mxCell id="2ZdwDaDd-DvCtBjy0k5W-221" value="yes" style="text;html=1;align=center;verticalAlign=middle;resizable=0;points=[];autosize=1;fontFamily=Comic Sans MS;" vertex="1" parent="1">
          <mxGeometry x="-150" y="270" width="30" height="20" as="geometry" />
        </mxCell>
        <mxCell id="2ZdwDaDd-DvCtBjy0k5W-224" value="yes" style="text;html=1;align=center;verticalAlign=middle;resizable=0;points=[];autosize=1;fontFamily=Comic Sans MS;" vertex="1" parent="1">
          <mxGeometry x="510" y="-130" width="30" height="20" as="geometry" />
        </mxCell>
        <mxCell id="2ZdwDaDd-DvCtBjy0k5W-225" value="yes" style="text;html=1;align=center;verticalAlign=middle;resizable=0;points=[];autosize=1;fontFamily=Comic Sans MS;" vertex="1" parent="1">
          <mxGeometry x="510" y="-20" width="30" height="20" as="geometry" />
        </mxCell>
        <mxCell id="2ZdwDaDd-DvCtBjy0k5W-226" value="yes" style="text;html=1;align=center;verticalAlign=middle;resizable=0;points=[];autosize=1;fontFamily=Comic Sans MS;" vertex="1" parent="1">
          <mxGeometry x="510" y="340" width="30" height="20" as="geometry" />
        </mxCell>
        <mxCell id="2ZdwDaDd-DvCtBjy0k5W-230" style="edgeStyle=orthogonalEdgeStyle;rounded=1;orthogonalLoop=1;jettySize=auto;html=1;exitX=0;exitY=0.5;exitDx=0;exitDy=0;fontFamily=Comic Sans MS;fontSize=12;" edge="1" parent="1" source="2ZdwDaDd-DvCtBjy0k5W-227">
          <mxGeometry relative="1" as="geometry">
            <mxPoint x="-140" y="-280" as="targetPoint" />
            <Array as="points">
              <mxPoint x="-290" y="420" />
              <mxPoint x="-290" y="-280" />
            </Array>
          </mxGeometry>
        </mxCell>
        <mxCell id="2ZdwDaDd-DvCtBjy0k5W-233" style="edgeStyle=orthogonalEdgeStyle;rounded=1;orthogonalLoop=1;jettySize=auto;html=1;exitX=0.5;exitY=1;exitDx=0;exitDy=0;entryX=0.5;entryY=0;entryDx=0;entryDy=0;fontFamily=Comic Sans MS;fontSize=12;" edge="1" parent="1" source="2ZdwDaDd-DvCtBjy0k5W-227" target="2ZdwDaDd-DvCtBjy0k5W-211">
          <mxGeometry relative="1" as="geometry">
            <Array as="points">
              <mxPoint x="50" y="580" />
              <mxPoint x="510" y="580" />
            </Array>
          </mxGeometry>
        </mxCell>
        <mxCell id="2ZdwDaDd-DvCtBjy0k5W-227" value="Any Error ?" style="rhombus;whiteSpace=wrap;html=1;fontFamily=Comic Sans MS;fillColor=#fff2cc;strokeColor=#d6b656;" vertex="1" parent="1">
          <mxGeometry x="10" y="380" width="80" height="80" as="geometry" />
        </mxCell>
        <mxCell id="2ZdwDaDd-DvCtBjy0k5W-231" value="no" style="text;html=1;align=center;verticalAlign=middle;resizable=0;points=[];autosize=1;fontFamily=Comic Sans MS;" vertex="1" parent="1">
          <mxGeometry x="50" y="470" width="30" height="20" as="geometry" />
        </mxCell>
        <mxCell id="2ZdwDaDd-DvCtBjy0k5W-232" value="yes" style="text;html=1;align=center;verticalAlign=middle;resizable=0;points=[];autosize=1;fontFamily=Comic Sans MS;" vertex="1" parent="1">
          <mxGeometry x="-30" y="400" width="30" height="20" as="geometry" />
        </mxCell>
      </root>
    </mxGraphModel>
  </diagram>
</mxfile>
